<svg width="161" height="50" viewBox="0 0 161 50" fill="none" xmlns="http://www.w3.org/2000/svg">
<path fill-rule="evenodd" clip-rule="evenodd" d="M160.979 0V35.5429H0V0H160.979V0Z" fill="#FFDD00"/>
<path fill-rule="evenodd" clip-rule="evenodd" d="M28.3097 6.38281L23.1665 13.3734C23.1665 13.3734 49.8295 13.3734 51.1973 13.3734C52.6142 13.3734 52.5954 13.9121 51.9029 14.8507C51.1995 15.8038 50.0226 17.4609 49.3061 18.4286C48.9427 18.9197 48.2853 19.8146 50.4635 19.8146C52.7664 19.8146 61.9263 19.8146 61.9263 19.8146C61.9263 19.8146 63.774 17.299 65.3224 15.1962C67.4296 12.3357 65.5052 6.38281 57.9729 6.38281C51.231 6.38281 28.3097 6.38281 28.3097 6.38281V6.38281Z" fill="#D50029"/>
<path fill-rule="evenodd" clip-rule="evenodd" d="M21.0854 29.1584L31.4159 15.1152C31.4159 15.1152 42.8679 15.1152 44.2351 15.1152C45.652 15.1152 45.6335 15.6539 44.941 16.5925C44.2376 17.5456 43.0414 19.1848 42.325 20.1527C41.9612 20.6439 41.3042 21.5402 43.4821 21.5402C45.7849 21.5402 60.6557 21.5402 60.6557 21.5402C59.2277 23.4979 54.5945 29.1584 46.2758 29.1584C39.534 29.1584 21.0854 29.1584 21.0854 29.1584V29.1584Z" fill="#D50029"/>
<path fill-rule="evenodd" clip-rule="evenodd" d="M80.2481 21.5381L74.646 29.158H59.8687C59.8687 29.158 65.4676 21.5398 65.4724 21.5398L80.2481 21.5381V21.5381Z" fill="#D50029"/>
<path fill-rule="evenodd" clip-rule="evenodd" d="M102.887 19.8146H66.7422L76.6262 6.38281H91.399L85.7339 14.0845H92.3284L97.9958 6.38281H112.767L102.887 19.8146V19.8146Z" fill="#D50029"/>
<path fill-rule="evenodd" clip-rule="evenodd" d="M101.618 21.54L96.0131 29.1582H81.2417C81.2417 29.1582 86.8404 21.54 86.8452 21.54H101.618V21.54Z" fill="#D50029"/>
<path fill-rule="evenodd" clip-rule="evenodd" d="M0 24.5439H21.7699L20.5807 26.1624H0V24.5439V24.5439Z" fill="#D50029"/>
<path fill-rule="evenodd" clip-rule="evenodd" d="M0 21.54H23.9816L22.7902 23.1562H0V21.54V21.54Z" fill="#D50029"/>
<path fill-rule="evenodd" clip-rule="evenodd" d="M0 27.5498H19.5594L18.3759 29.1583H0V27.5498V27.5498Z" fill="#D50029"/>
<path fill-rule="evenodd" clip-rule="evenodd" d="M160.98 26.1626H139.294L140.484 24.5444H160.98V26.1626V26.1626Z" fill="#D50029"/>
<path fill-rule="evenodd" clip-rule="evenodd" d="M160.98 29.1583L137.089 29.1606L138.272 27.5498H160.98V29.1583V29.1583Z" fill="#D50029"/>
<path fill-rule="evenodd" clip-rule="evenodd" d="M142.693 21.54H160.98V23.1571L141.504 23.1585L142.693 21.54V21.54Z" fill="#D50029"/>
<path fill-rule="evenodd" clip-rule="evenodd" d="M133.226 6.38281L123.344 19.8146H107.69C107.69 19.8146 117.575 6.38281 117.58 6.38281H133.226V6.38281Z" fill="#D50029"/>
<path fill-rule="evenodd" clip-rule="evenodd" d="M106.423 21.54C106.423 21.54 105.343 23.0167 104.819 23.7261C102.963 26.2352 104.604 29.1582 110.659 29.1582C117.653 29.1582 134.384 29.1582 134.384 29.1582L139.988 21.54H106.423V21.54Z" fill="#D50029"/>
<path fill-rule="evenodd" clip-rule="evenodd" d="M0 41.3213H160.98V42.1264H0V41.3213V41.3213Z" fill="#FFDD00"/>
<path fill-rule="evenodd" clip-rule="evenodd" d="M0 45.0786H160.98V45.8837H0V45.0786V45.0786Z" fill="#FFDD00"/>
<path fill-rule="evenodd" clip-rule="evenodd" d="M0 48.8345H160.98V49.6396H0V48.8345V48.8345Z" fill="#FFDD00"/>
<path fill-rule="evenodd" clip-rule="evenodd" d="M54.0562 49.6397H58.9009L59.6741 48.5911H56.0688L58.0905 45.8502H61.3738L62.1473 44.8013H58.864L60.6569 42.3706H64.2625L65.036 41.3218H60.1915L54.0562 49.6397V49.6397Z" fill="white"/>
<path fill-rule="evenodd" clip-rule="evenodd" d="M60.0015 49.6397H61.4882L66.5556 46.1124L66.5062 49.6397H68.0674L68.079 45.2902L73.9176 41.3218H72.5052L67.8575 44.5155L67.9084 41.3218H66.4216L66.3764 45.3141L60.0015 49.6397V49.6397Z" fill="white"/>
<path fill-rule="evenodd" clip-rule="evenodd" d="M75.7931 42.3709H76.8463C77.6146 42.3709 78.473 42.7522 77.6995 43.8008C76.8909 44.8971 75.652 45.2667 74.8839 45.2667H73.6572L75.7931 42.3709V42.3709ZM69.1924 49.64H70.4313L72.8835 46.3152H74.0976C75.6588 46.3152 77.6413 45.6598 79.0037 43.8127C80.4013 41.9178 79.3663 41.3218 77.5948 41.3218H75.3274L69.1924 49.64V49.64Z" fill="white"/>
<path fill-rule="evenodd" clip-rule="evenodd" d="M76.3271 49.64H77.5663L80.2911 45.9456H81.0345C81.6913 45.9456 82.0999 45.9456 81.8863 46.7559L81.085 49.64H82.4977L83.3058 46.3269C83.4111 45.8147 83.3575 45.636 83.0784 45.4928L83.0962 45.4689C84.2232 45.3019 85.5308 44.5871 86.2779 43.5741C87.7459 41.5843 86.2913 41.3218 84.5813 41.3218H82.4628L76.3271 49.64V49.64ZM82.9279 42.3709H84.1173C85.2577 42.3709 85.5005 42.8476 84.9465 43.5982C84.3576 44.3968 83.295 44.8971 82.1175 44.8971H81.0643L82.9279 42.3709V42.3709Z" fill="white"/>
<path fill-rule="evenodd" clip-rule="evenodd" d="M83.7812 49.6397H88.6254L89.3992 48.5911H85.7939L87.8153 45.8502H91.0984L91.8721 44.8013H88.5888L90.382 42.3706H93.9873L94.7611 41.3218H89.9166L83.7812 49.6397V49.6397Z" fill="white"/>
<path fill-rule="evenodd" clip-rule="evenodd" d="M100.728 41.4767C100.283 41.2742 99.6719 41.1787 99.1017 41.1787C97.5406 41.1787 95.746 41.9656 94.6562 43.4432C92.7489 46.029 96.844 45.5168 95.4726 47.3756C94.7522 48.3526 93.4792 48.7344 92.7733 48.7344C92.141 48.7344 91.5736 48.4958 91.2755 48.3287L90.3345 49.4372C90.7726 49.6159 91.244 49.783 91.8513 49.783C93.586 49.783 95.5293 49.0793 96.8386 47.3037C98.8607 44.5634 94.8709 44.9327 96.049 43.3358C96.6907 42.4656 97.684 42.2273 98.3777 42.2273C99.0222 42.2273 99.29 42.335 99.7463 42.573L100.728 41.4767V41.4767Z" fill="white"/>
<path fill-rule="evenodd" clip-rule="evenodd" d="M106.924 41.4767C106.479 41.2742 105.867 41.1787 105.298 41.1787C103.736 41.1787 101.942 41.9656 100.852 43.4432C98.9448 46.029 103.039 45.5168 101.668 47.3756C100.947 48.3526 99.6751 48.7344 98.9686 48.7344C98.3368 48.7344 97.7695 48.4958 97.4714 48.3287L96.5298 49.4372C96.9679 49.6159 97.4398 49.783 98.0472 49.783C99.7813 49.783 101.725 49.0793 103.035 47.3037C105.056 44.5634 101.067 44.9327 102.245 43.3358C102.887 42.4656 103.88 42.2273 104.574 42.2273C105.218 42.2273 105.486 42.335 105.942 42.573L106.924 41.4767V41.4767Z" fill="white"/>
</svg>
