<svg width="107" height="50" viewBox="0 0 107 50" fill="none" xmlns="http://www.w3.org/2000/svg">
<path fill-rule="evenodd" clip-rule="evenodd" d="M77.1562 18.5471V12.0257L85.7787 21.6771L77.1562 31.3271V24.5314H67.3907V18.5471H77.1562ZM77.1562 31.3271H85.9766L90.1688 26.6014L94.3997 31.3271H103.534L94.8357 21.6371L103.417 12.0257H94.6364L90.5245 16.7143L86.2534 12.0257H77.1562H67.3907V7.69999H77.1562V0.922852H60.2139V31.3271H77.1562Z" fill="#FF5900"/>
<path fill-rule="evenodd" clip-rule="evenodd" d="M53.0672 0.922852V13.3657H52.9883C51.4049 11.5543 49.4286 10.9243 47.1353 10.9243C42.4368 10.9243 38.8972 14.1071 37.6552 18.3129C36.2367 13.6786 32.5824 10.8371 27.1639 10.8371C22.7638 10.8371 19.2887 12.8043 17.4758 16.01V12.0257H8.38005V7.69999H18.3062V0.922852H0.272461V31.3271H8.38005V18.5471H16.4618C16.2209 19.4857 16.0918 20.4914 16.0918 21.5529C16.0918 27.8943 20.9566 32.3457 27.1639 32.3457C32.3844 32.3457 35.8251 29.9043 37.6437 25.4543H30.6949C29.7555 26.7929 29.0427 27.1886 27.1639 27.1886C24.9853 27.1886 23.1065 25.2957 23.1065 23.0514H37.255C37.8689 28.0886 41.8086 32.4329 47.2142 32.4329C49.5462 32.4329 51.6817 31.29 52.9869 29.3614H53.0658V31.33H60.2124V0.922852H53.0672ZM23.3331 18.6371C23.7835 16.7057 25.288 15.4443 27.1653 15.4443C29.232 15.4443 30.6591 16.6671 31.0348 18.6371H23.3331ZM44.4562 21.7C44.4562 24.2529 46.0941 26.6986 48.7287 26.6986C51.6115 26.6986 52.8578 24.2871 52.8578 21.7C52.8578 18.9714 51.6817 16.3471 48.7287 16.3471C45.8804 16.3471 44.4562 18.9714 44.4562 21.7Z" fill="#7F3DFF"/>
<path fill-rule="evenodd" clip-rule="evenodd" d="M60.2153 46.53V35.6343H66.2591V36.4471H61.2121V40.4643H66.0454V41.2771H61.2121V45.7143H66.4843V46.5286H60.2153V46.53Z" fill="white"/>
<path fill-rule="evenodd" clip-rule="evenodd" d="M67.2056 46.5298L70.1529 42.617L67.3576 38.9155H68.4906L70.7724 41.9398L73.0084 38.9155H74.1414L71.3017 42.617L74.2619 46.5298H73.1145L70.6663 43.2927L68.34 46.5298H67.2056H67.2056Z" fill="white"/>
<path fill-rule="evenodd" clip-rule="evenodd" d="M75.2573 49.3873H76.1795V45.4301C76.7231 46.3044 77.5535 46.7101 78.6119 46.7101C80.9683 46.7101 81.9795 44.7701 81.9795 42.7216C81.9795 40.6758 80.9683 38.7358 78.6119 38.7358C77.4775 38.7358 76.7216 39.1558 76.1494 40.0601L76.1193 38.9158H75.2114C75.2573 39.6701 75.2573 40.4358 75.2573 41.1887V49.3873ZM78.5058 39.5016C80.3172 39.5016 80.9985 41.0973 80.9985 42.7216C80.9985 44.3473 80.3186 45.9416 78.5058 45.9416C76.7991 45.9416 76.1795 44.543 76.1795 42.7216C76.1795 40.9016 76.7991 39.5016 78.5058 39.5016Z" fill="white"/>
<path fill-rule="evenodd" clip-rule="evenodd" d="M86.7181 39.6216C85.1921 39.6216 84.6615 40.9016 84.6615 42.2244V46.5301H83.7393V41.1558C83.7393 40.4187 83.7249 39.6687 83.6948 38.9158H84.6041L84.6629 40.0144C85.1161 39.143 85.8734 38.7358 86.8845 38.7358C87.0208 38.7358 87.1714 38.7501 87.3076 38.7658V39.6844C87.0953 39.6516 86.929 39.6216 86.7181 39.6216Z" fill="white"/>
<path fill-rule="evenodd" clip-rule="evenodd" d="M90.9277 46.0158C89.2511 46.0158 88.4365 44.6016 88.4365 42.8873H94.0084C94.0084 40.8558 93.3587 38.7358 90.9263 38.7358C88.524 38.7358 87.4512 40.6773 87.4512 42.8587C87.4512 44.9944 88.4795 46.7101 90.8058 46.7101C92.5426 46.7101 93.5251 45.8958 93.9338 44.3016H93.0575C92.8309 45.1587 92.2257 46.0158 90.9277 46.0158ZM93.0274 42.1958H88.4652C88.6459 40.4187 89.5537 39.4258 90.8675 39.4273C92.3189 39.4273 93.0274 40.7058 93.0274 42.1958Z" fill="white"/>
<path fill-rule="evenodd" clip-rule="evenodd" d="M97.6068 46.7101C96.0364 46.7101 94.8589 45.9716 94.8589 44.3016H95.7811C95.7811 45.4444 96.5355 46.0158 97.6542 46.0158C98.6968 46.0158 99.5115 45.5187 99.5115 44.4987C99.5115 43.5801 98.5606 43.3387 97.5638 43.053C96.3562 42.7073 95.041 42.3301 95.041 40.8558C95.041 39.2173 96.415 38.7358 97.7001 38.7358C99.1787 38.7358 100.283 39.3058 100.328 40.8858H99.4053C99.3609 39.9844 98.7112 39.473 97.7287 39.473C96.9586 39.473 96.022 39.773 96.022 40.7658C96.022 41.6701 96.9586 41.9258 97.9553 42.1958C99.1658 42.5258 100.494 42.8873 100.494 44.363C100.492 46.0773 99.1644 46.7101 97.6068 46.7101Z" fill="white"/>
<path fill-rule="evenodd" clip-rule="evenodd" d="M103.997 46.7101C102.426 46.7101 101.248 45.9716 101.248 44.3016H102.17C102.17 45.4444 102.925 46.0158 104.045 46.0158C105.087 46.0158 105.902 45.5187 105.902 44.4987C105.902 43.5801 104.95 43.3387 103.953 43.053C102.745 42.7073 101.432 42.3301 101.432 40.8558C101.432 39.2173 102.806 38.7358 104.091 38.7358C105.569 38.7358 106.674 39.3058 106.718 40.8858H105.796C105.751 39.9844 105.102 39.473 104.119 39.473C103.349 39.473 102.413 39.773 102.413 40.7658C102.413 41.6701 103.349 41.9258 104.347 42.1958C105.556 42.5258 106.886 42.8873 106.886 44.363C106.883 46.0773 105.554 46.7101 103.997 46.7101V46.7101Z" fill="white"/>
</svg>
