<svg width="208" height="48" viewBox="0 0 208 48" fill="none" xmlns="http://www.w3.org/2000/svg">
<path d="M72.0347 33.694H67.0308V25.7506H59.1695V33.694H54.1519V13.9655H59.1695V21.7038H67.0308V13.9655H72.0347V33.694ZM82.0954 21.8952C81.3572 21.8952 80.7328 22.1458 80.2224 22.6471C79.7211 23.1393 79.4385 23.7728 79.3747 24.5475H84.7888C84.7432 23.7545 84.4744 23.1165 83.9822 22.6335C83.49 22.1413 82.8611 21.8952 82.0954 21.8952ZM84.8982 28.9909H89.2732C89.0362 30.5312 88.2797 31.7617 87.0037 32.6823C85.7276 33.5937 84.1189 34.0495 82.1775 34.0495C79.8077 34.0495 77.9529 33.3659 76.613 31.9987C75.2732 30.6224 74.6033 28.7311 74.6033 26.3249C74.6033 23.9186 75.2686 22.0045 76.5994 20.5827C77.9392 19.1608 79.7439 18.4499 82.0134 18.4499C84.2556 18.4499 86.0375 19.1289 87.3591 20.487C88.6898 21.845 89.3552 23.6634 89.3552 25.942V27.3092H79.3064V27.61C79.3064 28.5032 79.5753 29.2279 80.113 29.7838C80.6599 30.3398 81.3708 30.6178 82.2458 30.6178C82.893 30.6178 83.4535 30.472 83.9275 30.1803C84.4014 29.8887 84.725 29.4922 84.8982 28.9909ZM91.664 33.694V13.9655H96.5175V33.694H91.664ZM108.711 18.5866C110.589 18.5866 112.047 19.2565 113.086 20.5963C114.134 21.9362 114.658 23.8229 114.658 26.2565C114.658 28.681 114.143 30.5631 113.113 31.903C112.083 33.2428 110.639 33.9128 108.779 33.9128C107.695 33.9128 106.756 33.6712 105.963 33.1881C105.17 32.696 104.591 32.0169 104.227 31.151H104.131V38.5065H99.2774V18.8053H104.104V21.4577H104.199C104.582 20.5553 105.161 19.8535 105.936 19.3522C106.719 18.8418 107.645 18.5866 108.711 18.5866ZM104.869 29.0866C105.37 29.7793 106.05 30.1256 106.906 30.1256C107.763 30.1256 108.442 29.7793 108.943 29.0866C109.454 28.3848 109.709 27.4414 109.709 26.2565C109.709 25.0716 109.454 24.1282 108.943 23.4264C108.442 22.7246 107.763 22.3737 106.906 22.3737C106.059 22.3737 105.38 22.7292 104.869 23.4401C104.368 24.1419 104.113 25.0807 104.104 26.2565C104.113 27.4414 104.368 28.3848 104.869 29.0866Z" fill="#15C46B"/>
<path d="M138.883 33.694H134.467V21.3756H134.371L129.49 33.4889H126.619L121.752 21.3756H121.643V33.694H117.227V13.9655H123.024L128 26.6393H128.11L133.086 13.9655H138.883V33.694ZM154.618 31.9987C153.259 33.3659 151.4 34.0495 149.039 34.0495C146.679 34.0495 144.819 33.3659 143.461 31.9987C142.103 30.6224 141.424 28.7038 141.424 26.2428C141.424 23.8275 142.112 21.9271 143.489 20.5417C144.865 19.1471 146.715 18.4499 149.039 18.4499C151.382 18.4499 153.237 19.1426 154.604 20.528C155.971 21.9134 156.655 23.8183 156.655 26.2428C156.655 28.7129 155.976 30.6315 154.618 31.9987ZM147.057 29.3874C147.54 30.1256 148.201 30.4948 149.039 30.4948C149.878 30.4948 150.539 30.1256 151.022 29.3874C151.505 28.6491 151.746 27.6055 151.746 26.2565C151.746 24.9258 151.5 23.8867 151.008 23.1393C150.525 22.3828 149.869 22.0045 149.039 22.0045C148.21 22.0045 147.554 22.3828 147.071 23.1393C146.588 23.8867 146.346 24.9258 146.346 26.2565C146.346 27.6055 146.583 28.6491 147.057 29.3874ZM168.438 33.9128C167.353 33.9128 166.415 33.6712 165.622 33.1881C164.838 32.696 164.254 32.0124 163.872 31.1374H163.776V33.694H158.95V13.9655H163.803V21.444H163.899C164.282 20.5417 164.861 19.8398 165.635 19.3385C166.419 18.8372 167.34 18.5866 168.397 18.5866C170.275 18.5866 171.733 19.2565 172.772 20.5963C173.811 21.9362 174.331 23.8229 174.331 26.2565C174.331 28.681 173.816 30.5631 172.786 31.903C171.756 33.2428 170.307 33.9128 168.438 33.9128ZM166.579 22.3737C165.74 22.3737 165.066 22.7292 164.555 23.4401C164.045 24.1419 163.785 25.0807 163.776 26.2565C163.785 27.4414 164.04 28.3848 164.542 29.0866C165.052 29.7793 165.731 30.1256 166.579 30.1256C167.435 30.1256 168.114 29.7793 168.616 29.0866C169.126 28.3848 169.381 27.4414 169.381 26.2565C169.381 25.0716 169.126 24.1282 168.616 23.4264C168.114 22.7246 167.435 22.3737 166.579 22.3737ZM176.612 33.694V18.8053H181.452V33.694H176.612ZM180.796 16.9186C180.322 17.3743 179.734 17.6022 179.032 17.6022C178.33 17.6022 177.738 17.3743 177.255 16.9186C176.781 16.4629 176.544 15.8978 176.544 15.2233C176.544 14.5579 176.781 13.9974 177.255 13.5417C177.738 13.0859 178.33 12.8581 179.032 12.8581C179.734 12.8581 180.322 13.0859 180.796 13.5417C181.27 13.9883 181.507 14.5488 181.507 15.2233C181.507 15.8978 181.27 16.4629 180.796 16.9186ZM184.239 33.694V13.9655H189.093V33.694H184.239ZM198.894 21.8952C198.155 21.8952 197.531 22.1458 197.021 22.6471C196.519 23.1393 196.237 23.7728 196.173 24.5475H201.587C201.541 23.7545 201.272 23.1165 200.78 22.6335C200.288 22.1413 199.659 21.8952 198.894 21.8952ZM201.696 28.9909H206.071C205.834 30.5312 205.078 31.7617 203.802 32.6823C202.526 33.5937 200.917 34.0495 198.976 34.0495C196.606 34.0495 194.751 33.3659 193.411 31.9987C192.071 30.6224 191.401 28.7311 191.401 26.3249C191.401 23.9186 192.067 22.0045 193.397 20.5827C194.737 19.1608 196.542 18.4499 198.812 18.4499C201.054 18.4499 202.836 19.1289 204.157 20.487C205.488 21.845 206.153 23.6634 206.153 25.942V27.3092H196.105V27.61C196.105 28.5032 196.373 29.2279 196.911 29.7838C197.458 30.3398 198.169 30.6178 199.044 30.6178C199.691 30.6178 200.252 30.472 200.726 30.1803C201.2 29.8887 201.523 29.4922 201.696 28.9909Z" fill="white"/>
<path fill-rule="evenodd" clip-rule="evenodd" d="M0.471443 34.743L23.7774 44.7486C24.612 45.111 25.7737 45.3078 27.053 45.3078C28.2569 45.3078 29.4524 45.1308 30.4237 44.811L44.6153 40.1466C45.1552 39.9684 45.5511 39.7596 45.8771 39.5454L45.8698 40.9062C45.9524 41.394 45.4028 41.9094 44.2773 42.2808L30.0839 46.947C28.2653 47.5446 25.6303 47.5332 24.2016 46.9188L0.896854 36.9144C0.244881 36.6342 -0.0449562 36.2748 0.00566101 35.9148L0.00325012 34.4688C0.155098 34.56 0.277416 34.6584 0.471443 34.743Z" fill="white" fill-opacity="0.2"/>
<path fill-rule="evenodd" clip-rule="evenodd" d="M1.60002 31.5684L15.7072 26.931C16.1333 27.123 16.5442 27.339 16.9901 27.4944L17.2137 28.1376L4.44653 32.3376C3.77829 32.5554 3.665 32.9166 4.18863 33.1404L23.6713 41.505C24.1962 41.7288 25.1591 41.7336 25.8261 41.5134L38.8258 37.242C39.4911 37.0218 39.6061 36.663 39.0837 36.4368L25.4411 30.5856L26.0575 28.8102L44.9822 36.9354C46.4121 37.5492 46.0958 38.5302 44.2772 39.1302L30.0838 43.7976C28.2653 44.3952 25.6303 44.3814 24.2016 43.7658L0.896824 33.7602C-0.531254 33.1506 -0.217316 32.1648 1.60002 31.5684ZM33.4347 40.953C34.062 41.2236 35.2225 41.2296 36.0227 40.9638C36.8217 40.7022 36.9609 40.2702 36.3324 39.9984C35.7015 39.7302 34.5446 39.723 33.7444 39.9864C32.943 40.2486 32.805 40.6842 33.4347 40.953Z" fill="white"/>
<path fill-rule="evenodd" clip-rule="evenodd" d="M8.85069 13.137C8.85069 5.8938 14.7691 0 22.0414 0C29.3168 0 35.2346 5.8932 35.2346 13.137C35.2346 19.4298 30.7647 24.699 24.818 25.974L21.7462 34.8264L18.6321 25.8126C13.0102 24.3096 8.85069 19.2018 8.85069 13.137ZM22.0414 23.4792C27.7808 23.4792 32.432 18.8502 32.432 13.1376C32.432 7.4214 27.7808 2.7924 22.0414 2.7924C16.305 2.7924 11.6544 7.4214 11.6544 13.1376C11.6544 18.8502 16.305 23.4792 22.0414 23.4792Z" fill="white"/>
<path fill-rule="evenodd" clip-rule="evenodd" d="M24.2727 9.80641C23.6852 9.45481 23.4948 8.69221 23.8503 8.10721L24.612 6.84961C23.6973 6.71161 22.7488 7.11901 22.2427 7.95721L22.1071 8.17861C21.6021 9.01441 21.6835 10.0398 22.2318 10.779L19.7167 14.7294C18.8032 14.5914 17.856 14.9976 17.3486 15.8358L17.2155 16.0524C16.7093 16.8936 16.7907 17.919 17.339 18.6588L18.0982 17.4012C18.455 16.8162 19.2208 16.6254 19.8095 16.9782C20.3994 17.3298 20.5923 18.0924 20.2355 18.6798L19.4751 19.9398C20.3886 20.0736 21.337 19.668 21.842 18.8298L21.9763 18.6084C22.4813 17.7708 22.4011 16.7454 21.854 16.0056L24.3667 12.0624C25.2814 12.1998 26.2274 11.787 26.736 10.9524L26.868 10.7322C27.3741 9.89521 27.294 8.86981 26.7444 8.13061L25.984 9.38341C25.6309 9.97321 24.8644 10.1616 24.2727 9.80641Z" fill="#FFC92D"/>
</svg>
