<svg width="40" height="40" viewBox="0 0 40 40" fill="none" xmlns="http://www.w3.org/2000/svg">
<g id="Icons  / ic-clock">
<g id="clock">
<path id="Fill-63" opacity="0.7" fill-rule="evenodd" clip-rule="evenodd" d="M20.131 36.1C11.4816 36.1 4.44476 29.1018 4.44476 20.5C4.44476 11.8982 11.4816 4.9 20.131 4.9C28.7804 4.9 35.8173 11.8982 35.8173 20.5C35.8173 29.1018 28.7804 36.1 20.131 36.1ZM20.131 1C9.30123 1 0.523193 9.73054 0.523193 20.5C0.523193 31.2695 9.30123 40 20.131 40C30.9601 40 39.7389 31.2695 39.7389 20.5C39.7389 9.73054 30.9601 1 20.131 1V1Z" fill="#2A345B"/>
<path id="Combined Shape" fill-rule="evenodd" clip-rule="evenodd" d="M10.9427 14.8014C11.6753 14.009 12.9153 13.9559 13.7129 14.6844L20.8504 21.5001L26.5615 18.423C27.48 17.852 28.6902 18.1297 29.2635 19.0431C29.8376 19.9565 29.5584 21.16 28.64 21.7302L21.5715 25.5382C21.4437 25.6187 21.3084 25.6832 21.1684 25.7316C20.8296 25.8496 20.4712 25.8698 20.1315 25.801C19.9795 25.7704 19.8303 25.7216 19.6873 25.6547C19.4779 25.5569 19.2843 25.4215 19.1177 25.2511L11.0604 17.5572C10.2619 16.8287 10.2102 15.5947 10.9427 14.8014Z" fill="#15C46B"/>
</g>
</g>
</svg>
