<svg width="31" height="47" viewBox="0 0 31 47" fill="none" xmlns="http://www.w3.org/2000/svg">
<g clip-path="url(#clip0)">
<path d="M14.9355 3C14.3367 4.20496 14 5.56316 14 7C14 7.68739 14.0771 8.35678 14.223 9H4V37H22V15.9451C22.3283 15.9814 22.662 16 23 16C24.0519 16 25.0617 15.8195 26 15.4879V42C26 44.76 23.76 47 21 47H5C2.24 47 0 44.76 0 42V8C0 5.24 2.24 3 5 3H14.9355ZM13 45C14.66 45 16 43.66 16 42C16 40.34 14.66 39 13 39C11.34 39 10 40.34 10 42C10 43.66 11.34 45 13 45Z" fill="white"/>
<path fill-rule="evenodd" clip-rule="evenodd" d="M23.2016 0C19.2181 0 16 3.20561 16 7.15537C16 11.1133 19.2263 14.3107 23.2016 14.3107C27.177 14.3107 30.4033 11.1051 30.4033 7.15537C30.4033 3.20561 27.177 0 23.2016 0Z" fill="#15C46B"/>
<path fill-rule="evenodd" clip-rule="evenodd" d="M23.6543 8.72544L22.2716 10.0911L20.8971 8.71727L19.572 7.3925L20.9547 6.02685L22.2798 7.35161L25.4568 4.21143L26.8313 5.58526L23.6543 8.72544Z" fill="white"/>
</g>
<defs>
<clipPath id="clip0">
<rect width="31" height="47" fill="white"/>
</clipPath>
</defs>
</svg>
