<svg width="31" height="34" viewBox="0 0 31 34" fill="none" xmlns="http://www.w3.org/2000/svg">
<g clip-path="url(#clip0)">
<path d="M7.76727 4.66504H3.31415C2.82835 4.66504 2.43524 5.09746 2.43524 5.63184C2.43524 6.16622 2.82835 6.59863 3.31415 6.59863H7.76727C8.25307 6.59863 8.64618 6.16622 8.64618 5.63184C8.64618 5.09746 8.25307 4.66504 7.76727 4.66504Z" fill="#15C46B"/>
<path d="M3.31415 12.8994H7.76727C7.93315 12.8994 8.14618 13.0621 8.14618 13.3662C8.14618 13.6704 7.93315 13.833 7.76727 13.833H3.31415C3.14827 13.833 2.93524 13.6704 2.93524 13.3662C2.93524 13.0621 3.14827 12.8994 3.31415 12.8994Z" fill="#15C46B" stroke="#15C46B"/>
<path d="M6.00946 8.53223H1.55634C1.07053 8.53223 0.677429 8.96464 0.677429 9.49902C0.677429 10.0334 1.07053 10.4658 1.55634 10.4658H6.00946C6.49526 10.4658 6.88837 10.0334 6.88837 9.49902C6.88837 8.96464 6.49526 8.53223 6.00946 8.53223Z" fill="#15C46B"/>
<path d="M28.9196 13.3662H23.5876V9.49905C23.5876 7.80097 21.6992 6.90688 20.5864 8.13252L13.5557 15.8663C12.869 16.6216 12.869 17.8452 13.5557 18.6005L17.5863 23.0342L12.6768 28.4347C11.9901 29.19 11.9901 30.4136 12.6768 31.1689C13.3634 31.9242 14.4758 31.9242 15.1625 31.1689L21.3148 24.4013C22.0015 23.646 22.0015 22.4224 21.3148 21.6671L17.2842 17.2334L20.072 14.1669V15.2998C20.072 16.3676 20.8591 17.2334 21.8298 17.2334H28.9196C29.8904 17.2334 30.6774 16.3676 30.6774 15.2998C30.6774 14.232 29.8904 13.3662 28.9196 13.3662Z" fill="white"/>
<path d="M17.0919 3.53971C16.3932 3.02891 15.4663 3.12998 14.874 3.78141L10.04 9.09879C9.35336 9.85412 9.35336 11.0777 10.04 11.833C10.7267 12.5883 11.8391 12.5883 12.5257 11.833L16.3409 7.63628L17.6261 8.65464L19.3432 6.76578C19.6305 6.44983 19.9693 6.20459 20.3397 6.0131L17.0919 3.53971Z" fill="white"/>
<path d="M12.3129 19.9677C11.8675 19.4777 11.5702 18.8748 11.4135 18.2228L2.12992 28.4347C1.44326 29.19 1.44326 30.4136 2.12992 31.1689C2.81653 31.9242 3.92893 31.9242 4.61559 31.1689L13.5557 21.3348L12.3129 19.9677Z" fill="white"/>
<path d="M24.4665 7.56543C25.9227 7.56543 27.1032 6.26688 27.1032 4.66504C27.1032 3.0632 25.9227 1.76465 24.4665 1.76465C23.0103 1.76465 21.8298 3.0632 21.8298 4.66504C21.8298 6.26688 23.0103 7.56543 24.4665 7.56543Z" fill="white"/>
</g>
<defs>
<clipPath id="clip0">
<rect width="30" height="33" fill="white" transform="translate(0.677429 0.25)"/>
</clipPath>
</defs>
</svg>
