<svg width="43" height="48" viewBox="0 0 43 48" fill="none" xmlns="http://www.w3.org/2000/svg">
<path fill-rule="evenodd" clip-rule="evenodd" d="M32.774 10.5896H24.2328V18.7496H18.9337V10.5896H10.1672C9.03096 10.5896 8.11023 11.5104 8.11023 12.6467V35.2557C8.11023 36.392 9.03096 37.3129 10.1672 37.3129H32.774C33.9102 37.3129 34.831 36.392 34.831 35.2557V12.6565C34.8408 11.5202 33.9102 10.5896 32.774 10.5896Z" fill="white"/>
<path fill-rule="evenodd" clip-rule="evenodd" d="M21.2551 43.9251L15.7308 40.7316C15.4467 40.5651 15.0843 40.7708 15.0843 41.1039V42.8475H6.90547C4.6918 42.8475 2.89932 41.0549 2.89932 38.841V23.961H0V38.841C0 42.6516 3.08542 45.7373 6.89567 45.7373H15.0745V47.481C15.0745 47.8141 15.4369 48.0198 15.721 47.8532L21.2453 44.6598C21.5392 44.503 21.5392 44.0916 21.2551 43.9251Z" fill="#15C46B"/>
<path fill-rule="evenodd" clip-rule="evenodd" d="M36.0455 2.18469H27.8667V0.431218C27.8667 0.0981565 27.5043 -0.107558 27.2203 0.0589728L21.6959 3.25244C21.4118 3.41897 21.4118 3.8304 21.6959 3.99693L27.2203 7.1904C27.5043 7.35693 27.8667 7.15122 27.8667 6.81816V5.06469H36.0455C38.2592 5.06469 40.0517 6.86714 40.0517 9.07122V23.961H42.9412V9.08101C42.9412 5.2704 39.846 2.18469 36.0455 2.18469Z" fill="#15C46B"/>
</svg>
