<svg width="16" height="16" fill="none" xmlns="http://www.w3.org/2000/svg"><path d="M2.11 15.147A.889.889 0 1 1 .853 13.89l1.481-1.482a.889.889 0 1 1 1.258 1.258L2.11 15.147z" fill="#DCE3E4"/><path fill-rule="evenodd" clip-rule="evenodd" d="M10.37 8.593l4.394-4.394a1.185 1.185 0 0 0 0-1.676l-1.287-1.287a1.185 1.185 0 0 0-1.676 0L7.407 5.63l2.963 2.963zM5.488 13.475l3.697-3.697-2.963-2.963-3.698 3.698a2.372 2.372 0 0 0-.614 1.064l-.385 1.44 1.538 1.433 1.357-.36c.404-.108.773-.32 1.068-.615z" fill="#DCE3E4"/><path fill-rule="evenodd" clip-rule="evenodd" d="M13.926 3.852l.817-.817c.49-.491.49-1.286 0-1.777l-.001-.001a1.256 1.256 0 0 0-1.777 0l-.817.817 1.778 1.778zM2.667 14.518a1.185 1.185 0 1 0 0-2.37 1.185 1.185 0 0 0 0 2.37zM12.777 1.446a.889.889 0 0 1-1.257 1.257l-.762-.762a.548.548 0 0 0-.776.001l-.168.168a6.398 6.398 0 0 0-.523.638c-.107.142-.586.797-.716.972-.434.58-.78 1.002-1.132 1.353a.889.889 0 0 1-1.257-1.257c.278-.277.578-.642.965-1.16.123-.165.603-.821.718-.974.28-.375.49-.63.689-.83l.168-.168a2.326 2.326 0 0 1 3.29 0l.76.762z" fill="#DCE3E4"/></svg>