<svg width="16" height="16" fill="none" xmlns="http://www.w3.org/2000/svg"><path fill-rule="evenodd" clip-rule="evenodd" d="M11.982 10.357a.893.893 0 0 0-.91.005l-1.423.848a.891.891 0 0 1-1.01-.06 23.146 23.146 0 0 1-2.025-1.766A23.158 23.158 0 0 1 4.85 7.358a.891.891 0 0 1-.06-1.008l.847-1.424a.897.897 0 0 0 .004-.913L3.55.446a.9.9 0 0 0-.993-.42c-.378.092-.868.316-1.382.83-1.61 1.61-2.465 4.326 3.588 10.38 6.054 6.053 8.768 5.198 10.379 3.588.515-.515.739-1.006.831-1.385a.896.896 0 0 0-.417-.99c-.86-.502-2.715-1.588-3.575-2.092z" fill="#DCE3E4"/></svg>