<svg width="24" height="24" viewBox="0 0 24 24" fill="none" xmlns="http://www.w3.org/2000/svg">
<path id="XMLID_275_" fill-rule="evenodd" clip-rule="evenodd" d="M21.725 10.95L18.25 14.45C18.05 14.65 17.8 14.75 17.525 14.75C17.25 14.75 17 14.65 16.8 14.45L13.35 10.95C12.975 10.55 12.975 9.925 13.35 9.525C13.75 9.15 14.375 9.15 14.775 9.525L16.7 11.475C16.45 7.85 13.475 4.975 9.85 4.975C6.075 5 3 8.15 3 12C3 15.85 6.075 19 9.875 19C11.275 19 12.625 18.575 13.75 17.775C14.2 17.45 14.825 17.575 15.15 18.025C15.475 18.475 15.35 19.1 14.9 19.425C13.425 20.45 11.675 21 9.875 21C4.975 21 1 16.975 1 12C1 7.025 4.975 3 9.875 3C14.475 3 18.275 6.575 18.7 11.15L20.275 9.55C20.675 9.15 21.3 9.15 21.7 9.55C22.1 9.925 22.1 10.55 21.725 10.95Z"/>
</svg>
