<svg width="40" height="40" viewBox="0 0 40 40" fill="none" xmlns="http://www.w3.org/2000/svg">
<g id="Icons  / ic-master">
<g id="avatar">
<path id="Fill-60" opacity="0.7" fill-rule="evenodd" clip-rule="evenodd" d="M34.4456 35.544C34.3088 35.72 34.0048 36 33.4936 36H6.3728C5.8616 36 5.5576 35.72 5.4208 35.544C5.2848 35.376 5.0688 35.016 5.1728 34.52L6.1976 29.664C6.5168 28.16 7.4456 26.84 8.7488 26.032L16.0536 21.5072C17.2304 22.0784 18.5472 22.4 19.9336 22.4C21.3192 22.4 22.6352 22.0784 23.8112 21.508L31.1168 26.032C32.4208 26.84 33.3488 28.16 33.6688 29.664L34.6936 34.52C34.7976 35.016 34.5816 35.376 34.4456 35.544ZM15.7944 5.6256C16.736 4.5776 18.0312 4 19.4408 4H20.4256C21.8352 4 23.1304 4.5776 24.072 5.6256C25.0144 6.6744 25.4512 8.024 25.3008 9.4256L24.808 14.0192C24.5408 16.5168 22.4448 18.4 19.9336 18.4C17.4216 18.4 15.3256 16.5168 15.0584 14.0192L14.5664 9.4248C14.416 8.024 14.852 6.6744 15.7944 5.6256ZM38.6048 33.696L37.5816 28.84C37.0368 26.256 35.4688 24.016 33.2208 22.624L27.0688 18.812C27.9936 17.572 28.6104 16.0824 28.7856 14.4456L29.2776 9.852C29.8416 4.5888 25.7176 0 20.4256 0H19.4408C14.1488 0 10.0248 4.5888 10.5888 9.852L11.0808 14.4456C11.256 16.0832 11.8728 17.5728 12.7984 18.8136L6.6456 22.624C4.3976 24.016 2.8296 26.256 2.2848 28.84L1.2616 33.696C0.572796 36.944 3.0528 40 6.3728 40H33.4936C36.8136 40 39.2936 36.944 38.6048 33.696V33.696Z" fill="#2A345B"/>
<path id="Fill-61" fill-rule="evenodd" clip-rule="evenodd" d="M27.5336 32.8H23.5336C22.4288 32.8 21.5336 31.9048 21.5336 30.8C21.5336 29.6952 22.4288 28.8 23.5336 28.8H27.5336C28.6376 28.8 29.5336 29.6952 29.5336 30.8C29.5336 31.9048 28.6376 32.8 27.5336 32.8" fill="#15C46B"/>
</g>
</g>
</svg>
