<svg width="40" height="40" viewBox="0 0 40 40" fill="none" xmlns="http://www.w3.org/2000/svg">
<g id="Icons  / ic-money">
<g id="purse">
<path id="Fill-93" opacity="0.7" fill-rule="evenodd" clip-rule="evenodd" d="M37.3859 20.8235V16.8863C37.3859 13.4275 34.5859 10.6275 31.1271 10.6275H6.78123C5.46515 10.6275 4.39535 9.52627 4.44633 8.16549C4.49339 6.89176 5.62202 5.92157 6.89653 5.92157H31.1271C32.0197 5.92157 32.8016 6.4298 33.1946 7.18353C33.5397 7.84471 34.2087 8.27137 34.9538 8.26824C36.4306 8.26275 37.3671 6.69333 36.6879 5.38275C35.6471 3.37255 33.5483 2 31.1271 2H6.78123C3.32476 2 0.523193 4.80235 0.523193 8.25882V31.8196C0.523193 35.2784 3.32241 38.0784 6.78123 38.0784H31.1271C34.5859 38.0784 37.3859 35.2784 37.3859 31.8196V27.8824H33.4644V31.8196C33.4644 33.1059 32.4134 34.1569 31.1271 34.1569H6.78123C5.49496 34.1569 4.44476 33.1059 4.44476 31.8196V14.0933C5.16711 14.3851 5.95457 14.549 6.78123 14.549H31.1271C32.4134 14.549 33.4644 15.6 33.4644 16.8863V20.8235H37.3859" fill="#2A345B"/>
<path id="Fill-94" fill-rule="evenodd" clip-rule="evenodd" d="M36.3725 18.4706H25.0651C23.2063 18.4706 21.6996 19.9772 21.6996 21.8369V26.8698C21.6996 28.7286 23.2063 30.2353 25.0651 30.2353H36.3725C38.2313 30.2353 39.7388 28.7286 39.7388 26.8698V21.8369C39.7388 19.9772 38.2313 18.4706 36.3725 18.4706ZM25.6212 26.3137H35.8172V22.3921H25.6212V26.3137Z" fill="#15C46B"/>
</g>
</g>
</svg>
