<svg width="40" height="40" viewBox="0 0 40 40" fill="none" xmlns="http://www.w3.org/2000/svg">
<g id="Icons  / ic-parts">
<g id="settings">
<path id="Fill-119" opacity="0.7" fill-rule="evenodd" clip-rule="evenodd" d="M20.131 33.7255C12.335 33.7255 6.01339 27.4039 6.01339 19.6078C6.01339 11.8118 12.335 5.4902 20.131 5.4902C27.9263 5.4902 34.2487 11.8118 34.2487 19.6078C34.2487 27.4039 27.9263 33.7255 20.131 33.7255ZM39.6212 17.4745C39.5106 16.4471 38.6252 15.6863 37.5891 15.6863C37.1969 15.6863 36.8604 15.4196 36.7585 15.0353C36.3734 13.6392 35.8173 12.3137 35.1185 11.0824C34.9224 10.7373 34.9695 10.3137 35.2526 10.0314C35.6448 9.63137 35.8557 9.09804 35.8557 8.57255C35.8557 8.13333 35.7154 7.69412 35.4252 7.33333C35.0252 6.83922 34.6087 6.36863 34.1624 5.91373C34.0526 5.79608 33.942 5.68627 33.8244 5.57647C33.3695 5.12941 32.8997 4.71373 32.4048 4.31373C31.5977 3.67059 30.4369 3.75686 29.7067 4.48627C29.5428 4.65098 29.3224 4.73726 29.1028 4.73726C28.9467 4.73726 28.7969 4.69804 28.6565 4.61961C27.4244 3.92157 26.0989 3.36471 24.7036 2.98039C24.3185 2.87843 24.0526 2.54118 24.0526 2.14902C24.0526 1.63137 23.8636 1.15294 23.5428 0.784314C23.2204 0.423529 22.7812 0.172549 22.2636 0.117647C21.5577 0.0392157 20.8518 0 20.131 0C19.4095 0 18.7036 0.0392157 17.9977 0.117647C16.9695 0.227451 16.2095 1.11373 16.2095 2.14902C16.2095 2.54118 15.9428 2.87843 15.5577 2.98039C14.1624 3.36471 12.8369 3.92157 11.6048 4.61961C11.2597 4.81569 10.8361 4.76863 10.5546 4.48627C10.1546 4.08627 9.62829 3.88235 9.09574 3.88235C8.66359 3.88235 8.22437 4.02353 7.85653 4.31373C7.36162 4.71373 6.89182 5.12941 6.43692 5.57647L6.09888 5.91373C5.65261 6.36863 5.23613 6.83922 4.83692 7.33333C4.19378 8.14118 4.28712 9.30196 5.00868 10.0314C5.17417 10.1961 5.26045 10.4157 5.26045 10.6353C5.26045 10.7922 5.22123 10.9412 5.1428 11.0824C4.44476 12.3137 3.8879 13.6392 3.5028 15.0353C3.40084 15.4196 3.06437 15.6863 2.67221 15.6863C2.15457 15.6863 1.67535 15.8745 1.30751 16.1961C0.946723 16.5176 0.694958 16.9569 0.640056 17.4745C0.561625 18.1804 0.523193 18.8863 0.523193 19.6078C0.523193 20.3294 0.561625 21.0353 0.640056 21.7412C0.750644 22.7686 1.63613 23.5294 2.67221 23.5294C3.06437 23.5294 3.40084 23.7961 3.5028 24.1804C3.8879 25.5765 4.44476 26.902 5.1428 28.1333C5.33888 28.4784 5.29182 28.902 5.00868 29.1843C4.60868 29.5843 4.40555 30.1098 4.40555 30.6431C4.40555 31.0745 4.54594 31.5137 4.83692 31.8824C5.23613 32.3765 5.65261 32.8471 6.09888 33.302C6.20947 33.4196 6.31927 33.5294 6.43692 33.6392C6.89182 34.0863 7.36162 34.502 7.85653 34.902C8.66359 35.5451 9.82437 35.451 10.5546 34.7294C10.7193 34.5647 10.9389 34.4784 11.1585 34.4784C11.3146 34.4784 11.4644 34.5176 11.6048 34.5961C12.8369 35.2941 14.1624 35.851 15.5577 36.2353C15.9428 36.3373 16.2095 36.6745 16.2095 37.0667C16.2095 37.5843 16.3977 38.0627 16.7185 38.4314C17.0408 38.7922 17.4801 39.0431 17.9977 39.098C18.7036 39.1765 19.4095 39.2157 20.131 39.2157C20.8518 39.2157 21.5577 39.1765 22.2636 39.098C23.2918 38.9882 24.0526 38.102 24.0526 37.0667C24.0526 36.6745 24.3185 36.3373 24.7036 36.2353C26.0989 35.851 27.4244 35.2941 28.6565 34.5961C29.0016 34.4 29.4252 34.4471 29.7067 34.7294C30.1067 35.1216 30.6401 35.3333 31.1655 35.3333C31.6048 35.3333 32.044 35.1922 32.4048 34.902C32.8997 34.502 33.3695 34.0863 33.8244 33.6392C33.942 33.5294 34.0526 33.4196 34.1624 33.302C34.6087 32.8471 35.0252 32.3765 35.4252 31.8824C36.0675 31.0745 35.9812 29.9137 35.2526 29.1843C35.0871 29.0196 35.0008 28.8 35.0008 28.5804C35.0008 28.4235 35.0401 28.2745 35.1185 28.1333C35.8173 26.902 36.3734 25.5765 36.7585 24.1804C36.8604 23.7961 37.1969 23.5294 37.5891 23.5294C38.1067 23.5294 38.5859 23.3412 38.9546 23.0196C39.3146 22.698 39.5663 22.2588 39.6212 21.7412C39.6997 21.0353 39.7389 20.3294 39.7389 19.6078C39.7389 18.8863 39.6997 18.1804 39.6212 17.4745V17.4745Z" fill="#2A345B"/>
<path id="Fill-120" fill-rule="evenodd" clip-rule="evenodd" d="M20.131 9.41177C14.4996 9.41177 9.93494 13.9765 9.93494 19.6079C9.93494 25.2392 14.4996 29.8039 20.131 29.8039C25.7616 29.8039 30.3271 25.2392 30.3271 19.6079C30.3271 13.9765 25.7616 9.41177 20.131 9.41177ZM20.131 13.3333C23.5906 13.3333 26.4055 16.1482 26.4055 19.6079C26.4055 23.0675 23.5906 25.8824 20.131 25.8824C16.6706 25.8824 13.8565 23.0675 13.8565 19.6079C13.8565 16.1482 16.6706 13.3333 20.131 13.3333V13.3333Z" fill="#15C46B"/>
</g>
</g>
</svg>
