<svg width="40" height="40" viewBox="0 0 40 40" fill="none" xmlns="http://www.w3.org/2000/svg">
<g id="Icons  / ic-pay">
<path id="XMLID_2192_" opacity="0.7" fill-rule="evenodd" clip-rule="evenodd" d="M38.5914 11.2067C38.5914 9.43 37.243 8 35.5677 8H4.02366C2.34839 8 1 9.43 1 11.2067V30.8367C1 32.57 2.34839 34 4.02366 34H35.6086C37.2839 34 38.6323 32.57 38.6323 30.7933V11.2067H38.5914ZM35.3226 11.4667V14.5H4.26882V11.4667H35.3226ZM4.26882 30.5333V19.7H35.3226V30.5333H4.26882Z" fill="#2A345B"/>
<path id="XMLID_2192_-path" fill-rule="evenodd" clip-rule="evenodd" d="M32.2581 25.6C32.2581 26.48 31.5226 27.2 30.6237 27.2H22.8602C21.9613 27.2 21.2258 26.48 21.2258 25.6C21.2258 24.72 21.9613 24 22.8602 24H30.6237C31.5226 24 32.2581 24.72 32.2581 25.6Z" fill="#15C46B"/>
</g>
</svg>
