<svg width="40" height="40" viewBox="0 0 40 40" fill="none" xmlns="http://www.w3.org/2000/svg">
<g id="Icons  / ic-security">
<g id="lock-2">
<path id="Fill-56" opacity="0.7" fill-rule="evenodd" clip-rule="evenodd" d="M31.1336 35.3168C31.1336 35.6936 30.8264 36 30.4504 36H9.41684C9.04004 36 8.73364 35.6936 8.73364 35.3168V21.4832C8.73364 21.1064 9.04004 20.8 9.41684 20.8H30.4504C30.8264 20.8 31.1336 21.1064 31.1336 21.4832V35.3168ZM13.5336 18V10.6536C13.5336 7.2344 16.1056 4.2296 19.5192 4.0136C23.2336 3.7776 26.3336 6.7352 26.3336 10.4V16.7704C26.3336 16.7864 26.3464 16.8 26.3632 16.8H9.41684C6.83044 16.8 4.73364 18.8968 4.73364 21.4832V35.3168C4.73364 37.9032 6.83044 40 9.41684 40H30.4504C33.036 40 35.1336 37.9032 35.1336 35.3168V21.4832C35.1336 18.8968 33.036 16.8 30.4504 16.8H30.3032C30.32 16.8 30.3336 16.7864 30.3336 16.7704V10.4C30.3336 4.4984 25.4184 -0.254399 19.4584 0.0104006C13.848 0.260001 9.53364 5.1056 9.53364 10.7208V18H13.5336Z" fill="#2A345B"/>
<path id="Fill-57" fill-rule="evenodd" clip-rule="evenodd" d="M19.9336 32V32C18.8288 32 17.9336 31.1048 17.9336 30V26.8C17.9336 25.6952 18.8288 24.8 19.9336 24.8C21.0376 24.8 21.9336 25.6952 21.9336 26.8V30C21.9336 31.1048 21.0376 32 19.9336 32" fill="#15C46B"/>
</g>
</g>
</svg>
