<svg width="72" height="72" viewBox="0 0 72 72" fill="none" xmlns="http://www.w3.org/2000/svg">
<path opacity="0.1" fill-rule="evenodd" clip-rule="evenodd" d="M36 72C16.1177 72 0 55.8823 0 36C0 16.1177 16.1177 0 36 0C55.8823 0 72 16.1177 72 36C72 45.5478 68.2072 54.7045 61.4558 61.4558C54.7045 68.2072 45.5478 72 36 72ZM36 6C19.4315 6 6 19.4315 6 36C6 52.5685 19.4315 66 36 66C52.5685 66 66 52.5685 66 36C66 28.0435 62.8393 20.4129 57.2132 14.7868C51.5871 9.16071 43.9565 6 36 6Z" fill="#2A345B"/>
<path fill-rule="evenodd" clip-rule="evenodd" d="M33 47.25C32.2057 47.2467 31.4451 46.9284 30.885 46.365L18.885 34.365C17.7128 33.1928 17.7128 31.2923 18.885 30.12C20.0573 28.9478 21.9578 28.9478 23.13 30.12L33 40.005L48.87 24.135C50.0423 22.9628 51.9428 22.9628 53.115 24.135C54.2873 25.3073 54.2873 27.2078 53.115 28.38L35.115 46.38C34.5526 46.9379 33.7922 47.2507 33 47.25V47.25Z" fill="#15C46B"/>
</svg>
