<svg width="21" height="21" viewBox="0 0 21 21" fill="none" xmlns="http://www.w3.org/2000/svg">
<path d="M2.29402 10.291L6.13402 11.725L7.62102 16.505C7.71602 16.811 8.09102 16.925 8.33902 16.721L10.479 14.976C10.5883 14.8867 10.7242 14.8361 10.8653 14.8321C11.0064 14.8281 11.1448 14.871 11.259 14.954L15.119 17.758C15.1802 17.8025 15.2516 17.831 15.3267 17.8408C15.4017 17.8507 15.478 17.8416 15.5486 17.8143C15.6192 17.7871 15.6819 17.7426 15.7309 17.6849C15.7799 17.6272 15.8136 17.5581 15.829 17.484L18.657 3.879C18.6736 3.79934 18.6684 3.71669 18.6419 3.63973C18.6155 3.56278 18.5688 3.49437 18.5068 3.44168C18.4448 3.38899 18.3698 3.35397 18.2896 3.3403C18.2094 3.32663 18.127 3.33482 18.051 3.364L2.29002 9.444C1.90002 9.594 1.90402 10.145 2.29402 10.291ZM7.38202 10.961L14.887 6.339C15.022 6.256 15.161 6.439 15.045 6.546L8.85002 12.304C8.63252 12.5063 8.49187 12.7777 8.45202 13.072L8.24102 14.636C8.21302 14.845 7.92002 14.866 7.86102 14.663L7.05102 11.812C7.00602 11.6537 7.01389 11.4851 7.07345 11.3316C7.13301 11.1782 7.241 11.0485 7.38102 10.962L7.38202 10.961Z" fill="white"/>
</svg>
