<svg width="20" height="20" viewBox="0 0 20 20" fill="none" xmlns="http://www.w3.org/2000/svg">
<path d="M15.706 8.66C15.726 6.31 13.725 4.157 11.245 3.859C11.195 3.853 11.142 3.844 11.085 3.835C10.9604 3.81067 10.8339 3.79663 10.707 3.793C10.199 3.793 10.063 4.15 10.027 4.363C9.992 4.57 10.025 4.744 10.126 4.88C10.294 5.11 10.59 5.15 10.828 5.182C10.898 5.192 10.963 5.201 11.018 5.213C13.247 5.711 13.997 6.494 14.363 8.703C14.373 8.757 14.377 8.823 14.381 8.894C14.397 9.158 14.431 9.708 15.021 9.708C15.07 9.708 15.123 9.704 15.178 9.695C15.728 9.612 15.711 9.109 15.702 8.868C15.7 8.8 15.698 8.736 15.704 8.693C15.7054 8.68239 15.7061 8.6717 15.706 8.661V8.66Z" fill="white"/>
<path d="M10.562 2.99601C10.628 3.00101 10.691 3.00601 10.742 3.01401C14.402 3.57601 16.084 5.31001 16.551 8.99701C16.559 9.06001 16.56 9.13701 16.561 9.21701C16.566 9.50501 16.575 10.105 17.219 10.117H17.239C17.441 10.117 17.601 10.057 17.716 9.93701C17.916 9.72701 17.903 9.41501 17.891 9.16501C17.888 9.10839 17.8867 9.0517 17.887 8.99501C17.933 5.22501 14.669 1.80501 10.901 1.67701C10.8856 1.67664 10.8702 1.67765 10.855 1.68001C10.84 1.68175 10.825 1.68242 10.81 1.68201C10.773 1.68201 10.727 1.67901 10.678 1.67501C10.618 1.67101 10.551 1.66701 10.483 1.66701C9.88297 1.66701 9.76897 2.09301 9.75397 2.34701C9.72097 2.93501 10.289 2.97701 10.562 2.99701V2.99601ZM16.374 13.763C16.296 13.703 16.216 13.643 16.141 13.582C15.741 13.26 15.316 12.964 14.905 12.677L14.649 12.499C14.123 12.129 13.649 11.949 13.202 11.949C12.6 11.949 12.075 12.282 11.642 12.939C11.449 13.229 11.217 13.37 10.929 13.37C10.759 13.37 10.567 13.322 10.356 13.226C8.65597 12.456 7.44297 11.274 6.74897 9.71501C6.41397 8.96101 6.52197 8.46801 7.11297 8.06701C7.44797 7.83901 8.07297 7.41601 8.02797 6.60501C7.97797 5.68301 5.94497 2.91201 5.08897 2.59701C4.72292 2.4636 4.32172 2.46254 3.95497 2.59401C2.96997 2.92401 2.26397 3.50601 1.91097 4.27401C1.57097 5.01701 1.58597 5.88901 1.95597 6.79601C3.02397 9.41901 4.52597 11.705 6.41997 13.592C8.27397 15.439 10.552 16.952 13.192 18.088C13.43 18.191 13.68 18.247 13.862 18.288C13.924 18.301 13.978 18.313 14.017 18.324C14.0385 18.3301 14.0606 18.3335 14.083 18.334H14.103C15.345 18.334 16.836 17.199 17.293 15.905C17.695 14.773 16.963 14.213 16.374 13.763ZM11.112 5.99201C10.899 5.99701 10.457 6.00801 10.302 6.45901C10.229 6.66901 10.238 6.85201 10.328 7.00201C10.459 7.22201 10.712 7.29001 10.941 7.32701C11.774 7.46001 12.202 7.92101 12.288 8.77601C12.328 9.17501 12.596 9.45301 12.94 9.45301C12.9661 9.45293 12.9921 9.45126 13.018 9.44801C13.433 9.39901 13.634 9.09501 13.615 8.54301C13.622 7.96801 13.321 7.31501 12.809 6.79401C12.295 6.27201 11.675 5.97801 11.112 5.99201Z" fill="white"/>
</svg>
