<svg width="24" height="24" viewBox="0 0 24 24" fill="none" xmlns="http://www.w3.org/2000/svg">
<path fill-rule="evenodd" clip-rule="evenodd" d="M22 12C22 12.6069 21.5263 13.1034 20.9474 13.1034H5.57895L10.3421 18.1241C10.7632 18.5655 10.7632 19.2552 10.3421 19.6966C10.1579 19.8897 9.89474 20 9.60526 20C9.34211 20 9.05263 19.8897 8.86842 19.669L2.31579 12.7724C1.89474 12.331 1.89474 11.6414 2.31579 11.2276L8.86842 4.33103C9.28947 3.88966 9.94737 3.88966 10.3684 4.33103C10.7895 4.77241 10.7895 5.46207 10.3684 5.90345L5.57895 10.8966H20.9474C21.5263 10.8966 22 11.3931 22 12Z" fill="white"/>
</svg>
