<svg width="24" height="24" viewBox="0 0 24 24" fill="none" xmlns="http://www.w3.org/2000/svg">
<path fill-rule="evenodd" clip-rule="evenodd" d="M2 12C2 12.6069 2.47368 13.1034 3.05263 13.1034H18.4211L13.6579 18.1241C13.2368 18.5655 13.2368 19.2552 13.6579 19.6966C13.8421 19.8897 14.1053 20 14.3947 20C14.6579 20 14.9474 19.8897 15.1316 19.669L21.6842 12.7724C22.1053 12.331 22.1053 11.6414 21.6842 11.2276L15.1316 4.33103C14.7105 3.88966 14.0526 3.88966 13.6316 4.33103C13.2105 4.77241 13.2105 5.46207 13.6316 5.90345L18.4211 10.8966H3.05263C2.47368 10.8966 2 11.3931 2 12Z" fill="white"/>
</svg>
