<svg width="24" height="24" viewBox="0 0 24 24" fill="none" xmlns="http://www.w3.org/2000/svg">
<path fill-rule="evenodd" clip-rule="evenodd" d="M12 0C5.37258 0 0 5.37258 0 12C0 18.6274 5.37258 24 12 24C18.6274 24 24 18.6274 24 12C24 8.8174 22.7357 5.76516 20.4853 3.51472C18.2348 1.26428 15.1826 0 12 0ZM12 22C6.47715 22 2 17.5228 2 12C2 6.47715 6.47715 2 12 2C17.5228 2 22 6.47715 22 12C22 17.5228 17.5228 22 12 22Z"/>
<path fill-rule="evenodd" clip-rule="evenodd" d="M16.7049 7.295C16.3149 6.90728 15.6849 6.90728 15.2949 7.295L11.9999 10.585L8.70489 7.295C8.30813 6.95523 7.71669 6.97807 7.34732 7.34744C6.97796 7.71681 6.95511 8.30824 7.29489 8.705L10.5849 12L7.29489 15.295C7.00951 15.5394 6.88521 15.9231 6.97308 16.2884C7.06095 16.6537 7.34617 16.9389 7.71147 17.0268C8.07677 17.1147 8.4605 16.9904 8.70489 16.705L11.9999 13.415L15.2949 16.705C15.5393 16.9904 15.923 17.1147 16.2883 17.0268C16.6536 16.9389 16.9388 16.6537 17.0267 16.2884C17.1146 15.9231 16.9903 15.5394 16.7049 15.295L13.4149 12L16.7049 8.705C17.0926 8.31497 17.0926 7.68504 16.7049 7.295Z"/>
</svg>
