<svg width="34" height="37" viewBox="0 0 34 37" fill="none" xmlns="http://www.w3.org/2000/svg">
<g clip-path="url(#clip0)">
<path d="M8.03516 4.9502H2.98828C2.43771 4.9502 1.99219 5.43503 1.99219 6.03418C1.99219 6.63333 2.43771 7.11816 2.98828 7.11816H8.03516C8.58573 7.11816 9.03125 6.63333 9.03125 6.03418C9.03125 5.43503 8.58573 4.9502 8.03516 4.9502Z" fill="#15C46B"/>
<path d="M2.98828 14.1221H8.03516C8.27063 14.1221 8.53125 14.3424 8.53125 14.7061C8.53125 15.0697 8.27063 15.29 8.03516 15.29H2.98828C2.75281 15.29 2.49219 15.0697 2.49219 14.7061C2.49219 14.3424 2.75281 14.1221 2.98828 14.1221Z" fill="#15C46B" stroke="#15C46B"/>
<path d="M6.04297 9.28613H0.996094C0.44552 9.28613 0 9.77096 0 10.3701C0 10.9693 0.44552 11.4541 0.996094 11.4541H6.04297C6.59354 11.4541 7.03906 10.9693 7.03906 10.3701C7.03906 9.77096 6.59354 9.28613 6.04297 9.28613Z" fill="#15C46B"/>
<path d="M32.0078 14.706H25.9649V10.3701C25.9649 8.46617 23.8247 7.46371 22.5635 8.83791L14.5954 17.5091C13.8172 18.356 13.8172 19.7279 14.5954 20.5748L19.1634 25.5459L13.5993 31.6009C12.8211 32.4478 12.8211 33.8197 13.5993 34.6666C14.3774 35.5134 15.6382 35.5135 16.4164 34.6666L23.389 27.0787C24.1672 26.2318 24.1672 24.8599 23.389 24.013L18.821 19.042L21.9805 15.6037V16.874C21.9805 18.0712 22.8725 19.042 23.9727 19.042H32.0078C33.108 19.042 34 18.0712 34 16.874C34 15.6768 33.108 14.706 32.0078 14.706Z" fill="#676F8C"/>
<path d="M18.6031 3.68847C17.8112 3.11576 16.7607 3.22907 16.0895 3.95946L10.6109 9.92138C9.83273 10.7683 9.83273 12.1402 10.6109 12.987C11.3892 13.8339 12.6499 13.8338 13.4281 12.987L17.7519 8.2816L19.2085 9.4234L21.1546 7.30558C21.4801 6.95133 21.8641 6.67636 22.284 6.46166L18.6031 3.68847Z" fill="#676F8C"/>
<path d="M13.1868 22.1077C12.6821 21.5585 12.3451 20.8824 12.1675 20.1514L1.64616 31.6011C0.867946 32.4479 0.867946 33.8198 1.64616 34.6667C2.42431 35.5135 3.68503 35.5136 4.46325 34.6667L14.5954 23.6406L13.1868 22.1077Z" fill="#676F8C"/>
<path d="M26.9609 8.20215C28.6113 8.20215 29.9492 6.7462 29.9492 4.9502C29.9492 3.15419 28.6113 1.69824 26.9609 1.69824C25.3106 1.69824 23.9727 3.15419 23.9727 4.9502C23.9727 6.7462 25.3106 8.20215 26.9609 8.20215Z" fill="#676F8C"/>
</g>
<defs>
<clipPath id="clip0">
<rect width="34" height="37" fill="white"/>
</clipPath>
</defs>
</svg>
