<svg width="40" height="40" viewBox="0 0 40 40" fill="none" xmlns="http://www.w3.org/2000/svg">
<g id="Icons  / ic-location">
<g id="address">
<path id="Fill-82" opacity="0.7" fill-rule="evenodd" clip-rule="evenodd" d="M26.6644 27.4627C27.6299 27.9976 28.8487 27.6306 29.3561 26.6502C31.8816 21.7655 33.9742 16.731 33.9742 13.7255C33.9742 6.14902 27.8252 0 20.2487 0C12.6714 0 6.52319 6.14902 6.52319 13.7255C6.52319 19.6157 15.0487 33.3098 18.844 38.4235C19.284 39.0118 19.935 39.302 20.593 39.302C21.2604 39.302 21.9342 38.9961 22.3663 38.3765C23.2079 37.1773 24.2832 35.52 25.4448 33.6071C26.022 32.6549 25.6942 31.4118 24.7193 30.8737C23.8016 30.3671 22.6471 30.6792 22.1028 31.5757C21.5757 32.4424 21.0534 33.2745 20.5459 34.0549C16.0675 27.5529 10.4448 17.4118 10.4448 13.7255C10.4448 8.32157 14.844 3.92157 20.2487 3.92157C25.6526 3.92157 30.0526 8.32157 30.0526 13.7255C30.0526 15.8988 28.2354 20.28 25.8754 24.8486C25.3891 25.7906 25.7373 26.949 26.6644 27.4627" fill="#2A345B"/>
<path id="Fill-83" fill-rule="evenodd" clip-rule="evenodd" d="M20.2486 7.05884C16.5662 7.05884 13.5819 10.0439 13.5819 13.7255C13.5819 17.4071 16.5662 20.3922 20.2486 20.3922C23.9301 20.3922 26.9152 17.4071 26.9152 13.7255C26.9152 10.0439 23.9301 7.05884 20.2486 7.05884ZM20.2486 10.9804C21.7615 10.9804 22.9937 12.2118 22.9937 13.7255C22.9937 15.2392 21.7615 16.4706 20.2486 16.4706C18.7349 16.4706 17.5035 15.2392 17.5035 13.7255C17.5035 12.2118 18.7349 10.9804 20.2486 10.9804V10.9804Z" fill="#15C46B"/>
</g>
</g>
</svg>
