<svg width="18" height="18" viewBox="0 0 18 18" fill="none" xmlns="http://www.w3.org/2000/svg">
<path d="M12.735 10.733C12.6158 10.6634 12.48 10.6271 12.3418 10.628C12.2037 10.6288 12.0684 10.6668 11.95 10.738L10.722 11.469C10.5888 11.5494 10.4343 11.5874 10.2789 11.5782C10.1236 11.5689 9.97475 11.5127 9.85203 11.417C9.24071 10.9436 8.65739 10.4351 8.10503 9.89401C7.56397 9.34164 7.05545 8.75833 6.58203 8.14701C6.48635 8.02428 6.43016 7.87542 6.42088 7.72008C6.41159 7.56475 6.44965 7.41025 6.53003 7.27701L7.26203 6.04901C7.33304 5.92996 7.37079 5.79403 7.37131 5.65542C7.37184 5.5168 7.33513 5.38059 7.26503 5.26101L5.46303 2.18501C5.37853 2.04036 5.2495 1.92693 5.09521 1.86168C4.94092 1.79644 4.76966 1.78287 4.60703 1.82301C4.28103 1.90201 3.85703 2.09501 3.41403 2.53901C2.02603 3.92801 1.29003 6.27001 6.51003 11.491C11.731 16.711 14.072 15.975 15.461 14.586C15.906 14.141 16.098 13.718 16.178 13.391C16.2181 13.229 16.2047 13.0584 16.1399 12.9046C16.075 12.7509 15.9621 12.6223 15.818 12.538L12.735 10.733Z" fill="#15C46B"/>
</svg>
