<svg width="32" height="32" viewBox="0 0 32 32" fill="none" xmlns="http://www.w3.org/2000/svg">
<g id="Icons / question">
<g id="Minus">
<rect id="Rectangle" width="32" height="32" rx="15" fill="#F6FAFD"/>
</g>
<path id="Combined Shape" fill-rule="evenodd" clip-rule="evenodd" d="M20.954 14.2366C21.1444 12.8473 20.7364 11.5382 19.8661 10.5763C19.2134 9.85496 17.9624 9 15.705 9C11.8431 9 11 11.8053 11 12.874C11 13.4618 11.4895 13.9427 12.0879 13.9427C12.6862 13.9427 13.1757 13.4618 13.1757 12.874C13.1757 12.7137 13.2573 11.1374 15.705 11.1374C16.8473 11.1374 17.6904 11.4313 18.2071 11.9924C18.8599 12.687 18.8327 13.6221 18.7783 13.9695C18.6423 15.0382 18.0983 15.5725 17.0377 15.5725C15.1067 15.5725 14.726 16.6145 14.726 17.4962V18.3511C14.726 18.9389 15.2155 19.4198 15.8138 19.4198C16.4122 19.4198 16.9017 18.9389 16.9017 18.3511V17.7099H17.0377C18.7239 17.7099 20.6276 16.8015 20.954 14.2366ZM14.7803 20.729C15.0251 20.4618 15.3787 20.3282 15.7322 20.3282C16.113 20.3282 16.4393 20.4885 16.6841 20.729C16.9561 20.9695 17.0921 21.3168 17.0921 21.6641C17.0921 22.0115 16.9289 22.3588 16.6841 22.5992C16.4393 22.8664 16.0858 23 15.7322 23C15.3787 23 15.0251 22.8397 14.7803 22.5992C14.5084 22.3588 14.3724 22.0115 14.3724 21.6641C14.3724 21.3168 14.5356 20.9695 14.7803 20.729Z" fill="#15C46B"/>
</g>
</svg>
