<svg width="18" height="16" fill="none" xmlns="http://www.w3.org/2000/svg"><path fill-rule="evenodd" clip-rule="evenodd" d="M17.667 2.625a7.099 7.099 0 0 1-2.043.56 3.562 3.562 0 0 0 1.563-1.968 7.13 7.13 0 0 1-2.258.864 3.556 3.556 0 0 0-6.06 3.243 10.096 10.096 0 0 1-7.33-3.717 3.547 3.547 0 0 0-.48 1.789c0 1.233.627 2.322 1.581 2.96a3.549 3.549 0 0 1-1.61-.445v.044a3.557 3.557 0 0 0 2.852 3.487 3.557 3.557 0 0 1-1.606.061 3.56 3.56 0 0 0 3.322 2.47 7.132 7.132 0 0 1-5.265 1.473 10.068 10.068 0 0 0 5.451 1.597c6.541 0 10.117-5.418 10.117-10.118 0-.154-.003-.307-.01-.46a7.236 7.236 0 0 0 1.776-1.84z"/></svg>