<svg width="40" height="40" viewBox="0 0 40 40" fill="none" xmlns="http://www.w3.org/2000/svg">
<g id="Icons  / ic-waranty">
<g id="menu">
<path id="Fill-49" opacity="0.7" fill-rule="evenodd" clip-rule="evenodd" d="M35.8173 32.8761C35.8173 34.2094 34.7318 35.2941 33.3985 35.2941H6.8628C5.52947 35.2941 4.44476 34.2094 4.44476 32.8761V6.34039C4.44476 5.00627 5.52947 3.92157 6.8628 3.92157H33.3985C34.7318 3.92157 35.8173 5.00627 35.8173 6.34039V32.8761ZM33.3985 0H6.8628C3.36162 0 0.523193 2.83843 0.523193 6.34039V32.8761C0.523193 36.3773 3.36162 39.2157 6.8628 39.2157H33.3985C36.8997 39.2157 39.7389 36.3773 39.7389 32.8761V6.34039C39.7389 2.83843 36.8997 0 33.3985 0V0Z" fill="#2A345B"/>
<path id="Fill-50" opacity="0.7" fill-rule="evenodd" clip-rule="evenodd" d="M29.935 9.41177H10.3271C9.24398 9.41177 8.36633 10.2894 8.36633 11.3726C8.36633 12.4557 9.24398 13.3333 10.3271 13.3333H29.935C31.0173 13.3333 31.8957 12.4557 31.8957 11.3726C31.8957 10.2894 31.0173 9.41177 29.935 9.41177" fill="#2A345B"/>
<path id="Fill-51" opacity="0.7" fill-rule="evenodd" clip-rule="evenodd" d="M29.935 18.0392H10.3271C9.24398 18.0392 8.36633 18.9169 8.36633 20C8.36633 21.0831 9.24398 21.9608 10.3271 21.9608H29.935C31.0173 21.9608 31.8957 21.0831 31.8957 20C31.8957 18.9169 31.0173 18.0392 29.935 18.0392" fill="#2A345B"/>
<path id="Fill-52" fill-rule="evenodd" clip-rule="evenodd" d="M26.7977 30.5882H10.3271C9.24398 30.5882 8.36633 29.7106 8.36633 28.6274C8.36633 27.5443 9.24398 26.6667 10.3271 26.6667H26.7977C27.8801 26.6667 28.7585 27.5443 28.7585 28.6274C28.7585 29.7106 27.8801 30.5882 26.7977 30.5882" fill="#15C46B"/>
</g>
</g>
</svg>
